<svg width="12" height="12" viewBox="0 0 12 12" fill="none" xmlns="http://www.w3.org/2000/svg">
<g clip-path="url(#clip0_263_1545)">
<path d="M1.75544 1L3.57501 1.06585C3.95826 1.07971 4.29838 1.32173 4.44526 1.6851L4.98328 3.01606C5.1085 3.32579 5.0748 3.67918 4.89346 3.95817L4.20415 5.01875C4.61227 5.6048 5.72235 6.9779 6.89775 7.78165L7.7742 7.24225C7.99695 7.10515 8.26365 7.06445 8.5157 7.12905L10.258 7.57585C10.7214 7.6947 11.0337 8.1391 10.9971 8.6276L10.8852 10.1193C10.8459 10.6427 10.4175 11.0535 9.909 10.9944C3.19622 10.2138 -0.740281 0.999985 1.75544 1Z" stroke="#F6FBF2" stroke-linecap="round" stroke-linejoin="round"/>
</g>
<defs>
<clipPath id="clip0_263_1545">
<rect width="12" height="12" fill="white"/>
</clipPath>
</defs>
</svg>
